<svg width="38" height="37" viewBox="0 0 38 37" fill="none" xmlns="http://www.w3.org/2000/svg">
<path d="M9.03631 36.3068C7.37785 36.3068 5.88523 35.5378 4.55846 34C3.23169 32.4622 2.17631 30.3514 1.39231 27.6677C0.638461 24.9538 0.261538 21.9234 0.261538 18.5763C0.261538 15.1388 0.623384 12.0932 1.34708 9.43969C2.10092 6.756 3.14123 4.67538 4.468 3.19785C5.79477 1.69015 7.31754 0.93631 9.03631 0.93631C10.7551 0.93631 12.2778 1.69015 13.6046 3.19785C14.9615 4.67538 16.0018 6.756 16.7255 9.43969C17.4794 12.0932 17.8563 15.1388 17.8563 18.5763C17.8563 21.9234 17.4643 24.9538 16.6803 27.6677C15.9265 30.3514 14.8711 32.4622 13.5142 34C12.1874 35.5378 10.6948 36.3068 9.03631 36.3068ZM9.03631 34.2262C10.3028 34.2262 11.4486 33.5477 12.4738 32.1908C13.4991 30.8338 14.2982 28.9643 14.8711 26.5822C15.4742 24.2 15.7757 21.5314 15.7757 18.5763C15.7757 15.5609 15.4892 12.8772 14.9163 10.5252C14.3434 8.14308 13.5443 6.30369 12.5191 5.00708C11.4938 3.68031 10.3329 3.01692 9.03631 3.01692C7.73969 3.01692 6.57877 3.68031 5.55354 5.00708C4.55846 6.30369 3.77446 8.14308 3.20154 10.5252C2.62862 12.8772 2.34215 15.5609 2.34215 18.5763C2.34215 21.5314 2.62862 24.2 3.20154 26.5822C3.77446 28.9643 4.57354 30.8338 5.59877 32.1908C6.624 33.5477 7.76985 34.2262 9.03631 34.2262ZM6.27723 28.3914C4.89015 28.3914 3.75938 27.6225 2.88492 26.0846C2.04062 24.5468 1.61846 22.632 1.61846 20.3403C1.61846 18.0486 2.04062 16.1338 2.88492 14.596C3.75938 13.0582 4.89015 12.2892 6.27723 12.2892C6.94062 12.2892 7.57385 12.4702 8.17692 12.832L6.36769 18.0335L10.6194 17.0837C10.8606 17.928 10.9812 19.0135 10.9812 20.3403C10.9812 22.632 10.544 24.5468 9.66954 26.0846C8.82523 27.6225 7.69446 28.3914 6.27723 28.3914ZM28.2594 36.3068C26.6009 36.3068 25.0932 35.5378 23.7363 34C22.4095 32.4622 21.3542 30.3514 20.5702 27.6677C19.8163 24.9538 19.4394 21.9234 19.4394 18.5763C19.4394 15.1388 19.8012 12.0932 20.5249 9.43969C21.2788 6.756 22.3191 4.67538 23.6458 3.19785C25.0028 1.69015 26.5406 0.93631 28.2594 0.93631C29.9782 0.93631 31.5009 1.69015 32.8277 3.19785C34.1545 4.67538 35.1797 6.756 35.9034 9.43969C36.6572 12.0932 37.0342 15.1388 37.0342 18.5763C37.0342 21.9234 36.6422 24.9538 35.8582 27.6677C35.1043 30.3514 34.064 32.4622 32.7372 34C31.4105 35.5378 29.9178 36.3068 28.2594 36.3068ZM28.2594 34.2262C29.5258 34.2262 30.6717 33.5477 31.6969 32.1908C32.7222 30.8338 33.5212 28.9643 34.0942 26.5822C34.6671 24.2 34.9535 21.5314 34.9535 18.5763C34.9535 15.5609 34.6671 12.8772 34.0942 10.5252C33.5212 8.14308 32.7222 6.30369 31.6969 5.00708C30.7018 3.68031 29.556 3.01692 28.2594 3.01692C26.9628 3.01692 25.8018 3.68031 24.7766 5.00708C23.7514 6.30369 22.9523 8.14308 22.3794 10.5252C21.8065 12.8772 21.52 15.5609 21.52 18.5763C21.52 21.5314 21.8065 24.2 22.3794 26.5822C22.9825 28.9643 23.7966 30.8338 24.8218 32.1908C25.8471 33.5477 26.9929 34.2262 28.2594 34.2262ZM25.5003 28.3914C24.0831 28.3914 22.9372 27.6225 22.0628 26.0846C21.2185 24.5468 20.7963 22.632 20.7963 20.3403C20.7963 18.0486 21.2185 16.1338 22.0628 14.596C22.9372 13.0582 24.0831 12.2892 25.5003 12.2892C26.1637 12.2892 26.7818 12.4702 27.3548 12.832L25.5455 18.0335L29.7972 17.0837C30.0385 17.928 30.1591 19.0135 30.1591 20.3403C30.1591 22.632 29.7218 24.5468 28.8474 26.0846C28.0031 27.6225 26.8874 28.3914 25.5003 28.3914Z" fill="#D8FF14"/>
</svg>
